<svg xmlns="http://www.w3.org/2000/svg" width="19" height="19" fill="none"><path stroke="#020202" stroke-linecap="round" stroke-linejoin="round" stroke-width="1.5" d="M15.2857 8.24993c0 4.49997-5.78571 8.35717-5.78571 8.35717s-5.78571-3.8572-5.78571-8.35717c0-1.53446.60956-3.00608 1.6946-4.09112 1.08503-1.08503 2.55665-1.69459 4.09111-1.69459 1.53451 0 3.00611.60956 4.09111 1.69459 1.085 1.08504 1.6946 2.55666 1.6946 4.09112Z"/><path stroke="#020202" stroke-linecap="round" stroke-linejoin="round" stroke-width="1.5" d="M9.5 10.1785c1.0651 0 1.9286-.86345 1.9286-1.92857 0-1.06512-.8635-1.92857-1.9286-1.92857-1.06512 0-1.92857.86345-1.92857 1.92857 0 1.06512.86345 1.92857 1.92857 1.92857Z"/></svg>
